<svg width="87" height="87" viewBox="0 0 87 87" fill="none" xmlns="http://www.w3.org/2000/svg">
<path d="M43.5 0C31.6952 0 30.2108 0.054375 25.5726 0.261C20.9344 0.4785 17.7752 1.20712 15.0075 2.28375C12.103 3.37302 9.47289 5.08623 7.30256 7.30256C5.08623 9.47289 3.37302 12.103 2.28375 15.0075C1.20712 17.7698 0.473063 20.9344 0.261 25.5562C0.054375 30.2053 0 31.6843 0 43.5054C0 55.3157 0.054375 56.7947 0.261 61.4329C0.4785 66.0656 1.20712 69.2248 2.28375 71.9925C3.39844 74.8526 4.88288 77.2777 7.30256 79.6974C9.71681 82.1171 12.1419 83.607 15.0021 84.7162C17.7752 85.7929 20.9289 86.5269 25.5617 86.739C30.2053 86.9456 31.6843 87 43.5 87C55.3157 87 56.7893 86.9456 61.4329 86.739C66.0602 86.5215 69.2302 85.7929 71.9979 84.7162C74.9005 83.6263 77.5287 81.9131 79.6974 79.6974C82.1171 77.2777 83.6016 74.8526 84.7162 71.9925C85.7874 69.2248 86.5215 66.0656 86.739 61.4329C86.9456 56.7947 87 55.3157 87 43.5C87 31.6843 86.9456 30.2053 86.739 25.5617C86.5215 20.9344 85.7874 17.7698 84.7162 15.0075C83.627 12.103 81.9138 9.47289 79.6974 7.30256C77.5271 5.08623 74.897 3.37302 71.9925 2.28375C69.2194 1.20712 66.0547 0.473063 61.4274 0.261C56.7838 0.054375 55.3102 0 43.4891 0H43.5ZM39.6013 7.84088H43.5054C55.1199 7.84088 56.4956 7.87894 61.0794 8.091C65.3207 8.28131 67.6262 8.99362 69.1596 9.58631C71.1878 10.3748 72.6396 11.3209 74.1621 12.8434C75.6846 14.3659 76.6253 15.8123 77.4137 17.8459C78.0118 19.3738 78.7187 21.6793 78.909 25.9206C79.1211 30.5044 79.1646 31.8801 79.1646 43.4891C79.1646 55.0982 79.1211 56.4793 78.909 61.0631C78.7187 65.3044 78.0064 67.6044 77.4137 69.1378C76.7113 71.0241 75.5989 72.7309 74.1566 74.1349C72.6341 75.6574 71.1878 76.5981 69.1541 77.3865C67.6316 77.9846 65.3261 78.6915 61.0794 78.8873C56.4956 79.0939 55.1199 79.1428 43.5054 79.1428C31.8909 79.1428 30.5098 79.0939 25.926 78.8873C21.6848 78.6915 19.3847 77.9846 17.8513 77.3865C15.9636 76.6865 14.2549 75.5758 12.8488 74.1349C11.4039 72.7298 10.2895 71.0211 9.58631 69.1324C8.99362 67.6044 8.28131 65.2989 8.091 61.0577C7.88438 56.4739 7.84088 55.0982 7.84088 43.4782C7.84088 31.8583 7.88438 30.4935 8.091 25.9097C8.28675 21.6684 8.99363 19.3629 9.59175 17.8296C10.3802 15.8014 11.3263 14.3496 12.8488 12.8271C14.3713 11.3046 15.8177 10.3639 17.8513 9.57544C19.3847 8.97731 21.6848 8.27044 25.926 8.07469C29.9389 7.88981 31.494 7.83544 39.6013 7.83V7.84088ZM66.7236 15.0619C66.0381 15.0619 65.3593 15.1969 64.726 15.4592C64.0926 15.7216 63.5172 16.1061 63.0325 16.5908C62.5477 17.0755 62.1632 17.6509 61.9009 18.2843C61.6386 18.9176 61.5036 19.5964 61.5036 20.2819C61.5036 20.9674 61.6386 21.6462 61.9009 22.2795C62.1632 22.9128 62.5477 23.4883 63.0325 23.973C63.5172 24.4577 64.0926 24.8422 64.726 25.1045C65.3593 25.3669 66.0381 25.5019 66.7236 25.5019C68.108 25.5019 69.4357 24.9519 70.4147 23.973C71.3936 22.994 71.9436 21.6663 71.9436 20.2819C71.9436 18.8974 71.3936 17.5697 70.4147 16.5908C69.4357 15.6118 68.108 15.0619 66.7236 15.0619ZM43.5054 21.1628C40.5424 21.1165 37.5997 21.6602 34.8488 22.7621C32.0979 23.8641 29.5937 25.5023 27.4819 27.5813C25.3702 29.6603 23.6932 32.1387 22.5484 34.8721C21.4037 37.6055 20.8142 40.5393 20.8142 43.5027C20.8142 46.4661 21.4037 49.3999 22.5484 52.1333C23.6932 54.8667 25.3702 57.3451 27.4819 59.4241C29.5937 61.5032 32.0979 63.1414 34.8488 64.2433C37.5997 65.3452 40.5424 65.8889 43.5054 65.8427C49.37 65.7512 54.9634 63.3573 59.0783 59.1777C63.1932 54.9981 65.4996 49.368 65.4996 43.5027C65.4996 37.6374 63.1932 32.0074 59.0783 27.8278C54.9634 23.6482 49.37 21.2542 43.5054 21.1628ZM43.5054 28.9982C45.4098 28.9982 47.2956 29.3733 49.055 30.1021C50.8145 30.8309 52.4132 31.8991 53.7598 33.2457C55.1064 34.5923 56.1746 36.191 56.9034 37.9504C57.6321 39.7098 58.0073 41.5956 58.0073 43.5C58.0073 45.4044 57.6321 47.2902 56.9034 49.0496C56.1746 50.809 55.1064 52.4077 53.7598 53.7543C52.4132 55.1009 50.8145 56.1691 49.055 56.8979C47.2956 57.6267 45.4098 58.0018 43.5054 58.0018C39.6593 58.0018 35.9707 56.4739 33.2511 53.7543C30.5315 51.0347 29.0036 47.3461 29.0036 43.5C29.0036 39.6539 30.5315 35.9653 33.2511 33.2457C35.9707 30.5261 39.6593 28.9982 43.5054 28.9982Z" fill="#D9D9D9"/>
</svg>
