<svg width="200" height="200" viewBox="0 0 200 200" fill="none" xmlns="http://www.w3.org/2000/svg">
<circle cx="100" cy="100" r="100" fill="#D9D9D9"/>
<path d="M147.615 44.1368C147.205 44.1368 147.068 44.4103 146.794 44.5471L95.5082 80.926C94.9611 81.3363 94.1405 82.4304 93.7302 83.1142L91.9523 86.5333C101.799 89.6788 109.321 97.2008 112.467 107.048L115.886 105.27C116.57 104.859 117.527 104.176 118.074 103.492L154.453 52.2058C154.863 51.522 155 50.9749 154.453 50.4279L148.435 44.4103C148.162 44.1368 147.888 44 147.615 44V44.1368ZM82.2422 98.4316C72.1217 98.4316 64.3262 106.774 64.3262 116.758C64.3262 130.297 56.8043 142.059 46 148.35C51.3338 151.359 57.7616 153 64.3262 153C84.4304 153 100.705 136.862 100.705 116.621C100.705 106.501 92.3626 98.2949 82.3789 98.2949L82.2422 98.4316Z" fill="#656565"/>
</svg>
