<svg width="87" height="60" viewBox="0 0 87 60" fill="none" xmlns="http://www.w3.org/2000/svg">
<path d="M43.78 0H44.264C48.7339 0.0160157 71.3825 0.176173 77.4892 1.78842C79.3353 2.28046 81.0176 3.23955 82.3678 4.56984C83.7181 5.90014 84.6891 7.55503 85.1838 9.36916C85.733 11.3978 86.1191 14.0831 86.3801 16.8538L86.4345 17.409L86.5541 18.797L86.5976 19.3523C86.9511 24.2317 86.9946 28.8015 87 29.7998V30.2002C86.9946 31.2359 86.9456 36.1153 86.5541 41.1976L86.5106 41.7582L86.4617 42.3134C86.1898 45.367 85.7874 48.3993 85.1838 50.6308C84.6891 52.445 83.7181 54.0999 82.3678 55.4302C81.0176 56.7604 79.3353 57.7195 77.4892 58.2116C71.1813 59.8772 47.2059 59.9947 43.8834 60H43.1112C41.4309 60 34.4813 59.968 27.1946 59.7224L26.2702 59.6904L25.7971 59.669L24.8672 59.6316L23.9374 59.5943C17.9014 59.3327 12.1536 58.9109 9.50534 58.2062C7.65989 57.7147 5.97809 56.7564 4.62788 55.4271C3.27767 54.0978 2.30631 52.444 1.8108 50.6308C1.2072 48.4047 0.8048 45.367 0.532908 42.3134L0.489406 41.7528L0.445903 41.1976C0.175987 37.5803 0.0272725 33.9552 0 30.3283L0 29.6717C0.0108757 28.5239 0.0543784 24.5573 0.348022 20.1797L0.386087 19.6299L0.4024 19.3523L0.445903 18.797L0.565535 17.409L0.619914 16.8538C0.88093 14.0831 1.26702 11.3925 1.81624 9.36916C2.31092 7.55503 3.28191 5.90014 4.63217 4.56984C5.98243 3.23955 7.66467 2.28046 9.51078 1.78842C12.159 1.0944 17.9068 0.667319 23.9428 0.400391L24.8672 0.363021L25.8025 0.330991L26.2702 0.314975L27.2001 0.277606C32.3753 0.114264 37.5527 0.023499 42.7305 0.0053388L43.78 0ZM34.8022 17.1368V42.8579L57.4073 30.0027L34.8022 17.1368Z" fill="#D9D9D9"/>
</svg>
